<?xml version="1.0" encoding="UTF-8" standalone="no"?>
<svg
   xmlns:ooo="http://xml.openoffice.org/svg/export"
   xmlns:dc="http://purl.org/dc/elements/1.1/"
   xmlns:cc="http://creativecommons.org/ns#"
   xmlns:rdf="http://www.w3.org/1999/02/22-rdf-syntax-ns#"
   xmlns:svg="http://www.w3.org/2000/svg"
   xmlns="http://www.w3.org/2000/svg"
   xmlns:xlink="http://www.w3.org/1999/xlink"
   xmlns:sodipodi="http://sodipodi.sourceforge.net/DTD/sodipodi-0.dtd"
   xmlns:inkscape="http://www.inkscape.org/namespaces/inkscape"
   version="1.2"
   width="104mm"
   height="104mm"
   viewBox="5571 4864 10400 10400"
   preserveAspectRatio="xMidYMid"
   xml:space="preserve"
   id="svg4264"
   inkscape:version="0.91 r13725"
   sodipodi:docname="Flock.svg"
   style="fill-rule:evenodd;stroke-width:28.22200012;stroke-linejoin:round"><metadata
     id="metadata4336"><rdf:RDF><cc:Work
         rdf:about=""><dc:format>image/svg+xml</dc:format><dc:type
           rdf:resource="http://purl.org/dc/dcmitype/StillImage" /><dc:title></dc:title></cc:Work></rdf:RDF></metadata><sodipodi:namedview
     pagecolor="#ffffff"
     bordercolor="#666666"
     borderopacity="1"
     objecttolerance="10"
     gridtolerance="10"
     guidetolerance="10"
     inkscape:pageopacity="0"
     inkscape:pageshadow="2"
     inkscape:window-width="1242"
     inkscape:window-height="697"
     id="namedview4334"
     showgrid="true"
     inkscape:zoom="1.3940788"
     inkscape:cx="194.08721"
     inkscape:cy="174.66732"
     inkscape:window-x="0"
     inkscape:window-y="0"
     inkscape:window-maximized="0"
     inkscape:current-layer="id3"><inkscape:grid
       type="xygrid"
       id="grid4179"
       dotted="true" /></sodipodi:namedview><defs
     class="ClipPathGroup"
     id="defs4266"><linearGradient
       id="gradient1"
       x1="7289"
       y1="4232"
       x2="13711"
       y2="15354"
       gradientUnits="userSpaceOnUse"><stop
         offset="0"
         style="stop-color:rgb(252, 175, 62);fill-opacity:1.0;fill:url(#linearGradient4911)"
         id="stop4915" /><stop
         offset="1"
         style="stop-color:rgb(206, 92, 0);fill-opacity:1.0;fill:url(#linearGradient4911)"
         id="stop4917" /></linearGradient><inkscape:path-effect
       effect="powerstroke"
       id="path-effect4253"
       is_visible="true"
       offset_points="0,14.111112"
       sort_points="true"
       interpolator_type="Linear"
       interpolator_beta="0.2"
       start_linecap_type="zerowidth"
       linejoin_type="round"
       miter_limit="4"
       end_linecap_type="zerowidth"
       cusp_linecap_type="round" /><clipPath
       id="presentation_clip_path"
       clipPathUnits="userSpaceOnUse"><rect
         x="5571"
         y="4864"
         width="9859"
         height="9859"
         id="rect4269" /></clipPath><filter
       style="color-interpolation-filters:sRGB"
       inkscape:label="Drop Shadow"
       id="filter5986"><feFlood
         flood-opacity="0.498039"
         flood-color="rgb(0,0,0)"
         result="flood"
         id="feFlood5988" /><feComposite
         in="flood"
         in2="SourceGraphic"
         operator="in"
         result="composite1"
         id="feComposite5990" /><feGaussianBlur
         in="composite1"
         stdDeviation="100"
         result="blur"
         id="feGaussianBlur5992" /><feOffset
         dx="21"
         dy="21"
         result="offset"
         id="feOffset5994" /><feComposite
         in="SourceGraphic"
         in2="offset"
         operator="over"
         result="composite2"
         id="feComposite5996" /></filter><linearGradient
       inkscape:collect="always"
       xlink:href="#linearGradient4919"
       id="linearGradient4911"
       x1="10528.419"
       y1="14732.622"
       x2="10633.536"
       y2="4893.8667"
       gradientUnits="userSpaceOnUse" /><linearGradient
       inkscape:collect="always"
       xlink:href="#linearGradient4919"
       id="linearGradient4189"
       gradientUnits="userSpaceOnUse"
       x1="10528.419"
       y1="14732.622"
       x2="10633.536"
       y2="4893.8667"
       gradientTransform="translate(270.99974,-270.0006)" /><linearGradient
       inkscape:collect="always"
       xlink:href="#linearGradient4919"
       id="linearGradient4191"
       gradientUnits="userSpaceOnUse"
       x1="10528.419"
       y1="14732.622"
       x2="10633.536"
       y2="4893.8667" /><linearGradient
       inkscape:collect="always"
       xlink:href="#linearGradient4919"
       id="linearGradient4193"
       gradientUnits="userSpaceOnUse"
       x1="10528.419"
       y1="14732.622"
       x2="10633.536"
       y2="4893.8667" /></defs><defs
     class="TextShapeIndex"
     id="defs4271"><g
       ooo:slide="id1"
       ooo:id-list="id3 id4"
       id="g4273" /></defs><defs
     class="EmbeddedBulletChars"
     id="defs4275"><g
       id="bullet-char-template(57356)"
       transform="scale(4.8828125e-4,-4.8828125e-4)"><path
         d="M 580,1141 1163,571 580,0 -4,571 580,1141 Z"
         id="path4278"
         inkscape:connector-curvature="0" /></g><g
       id="bullet-char-template(57354)"
       transform="scale(4.8828125e-4,-4.8828125e-4)"><path
         d="m 8,1128 1129,0 L 1137,0 8,0 8,1128 Z"
         id="path4281"
         inkscape:connector-curvature="0" /></g><g
       id="bullet-char-template(10146)"
       transform="scale(4.8828125e-4,-4.8828125e-4)"><path
         d="M 174,0 602,739 174,1481 1456,739 174,0 Z m 1184,739 -1049,607 350,-607 699,0 z"
         id="path4284"
         inkscape:connector-curvature="0" /></g><g
       id="bullet-char-template(10132)"
       transform="scale(4.8828125e-4,-4.8828125e-4)"><path
         d="M 2015,739 1276,0 717,0 l 543,543 -1086,0 0,393 1086,0 -543,545 557,0 741,-742 z"
         id="path4287"
         inkscape:connector-curvature="0" /></g><g
       id="bullet-char-template(10007)"
       transform="scale(4.8828125e-4,-4.8828125e-4)"><path
         d="m 0,-2 c -7,16 -16,29 -25,39 l 381,530 c -94,256 -141,385 -141,387 0,25 13,38 40,38 9,0 21,-2 34,-5 21,4 42,12 65,25 l 27,-13 111,-251 280,301 64,-25 24,25 c 21,-10 41,-24 62,-43 C 886,937 835,863 770,784 769,783 710,716 594,584 L 774,223 c 0,-27 -21,-55 -63,-84 l 16,-20 C 717,90 699,76 672,76 641,76 570,178 457,381 L 164,-76 c -22,-34 -53,-51 -92,-51 -42,0 -63,17 -64,51 -7,9 -10,24 -10,44 0,9 1,19 2,30 z"
         id="path4290"
         inkscape:connector-curvature="0" /></g><g
       id="bullet-char-template(10004)"
       transform="scale(4.8828125e-4,-4.8828125e-4)"><path
         d="M 285,-33 C 182,-33 111,30 74,156 52,228 41,333 41,471 c 0,78 14,145 41,201 34,71 87,106 158,106 53,0 88,-31 106,-94 l 23,-176 c 8,-64 28,-97 59,-98 l 735,706 c 11,11 33,17 66,17 42,0 63,-15 63,-46 l 0,-122 c 0,-36 -10,-64 -30,-84 L 442,47 C 390,-6 338,-33 285,-33 Z"
         id="path4293"
         inkscape:connector-curvature="0" /></g><g
       id="bullet-char-template(9679)"
       transform="scale(4.8828125e-4,-4.8828125e-4)"><path
         d="M 813,0 C 632,0 489,54 383,161 276,268 223,411 223,592 c 0,181 53,324 160,431 106,107 249,161 430,161 179,0 323,-54 432,-161 108,-107 162,-251 162,-431 0,-180 -54,-324 -162,-431 C 1136,54 992,0 813,0 Z"
         id="path4296"
         inkscape:connector-curvature="0" /></g><g
       id="bullet-char-template(8226)"
       transform="scale(4.8828125e-4,-4.8828125e-4)"><path
         d="m 346,457 c -73,0 -137,26 -191,78 -54,51 -81,114 -81,188 0,73 27,136 81,188 54,52 118,78 191,78 73,0 134,-26 185,-79 51,-51 77,-114 77,-187 0,-75 -25,-137 -76,-188 -50,-52 -112,-78 -186,-78 z"
         id="path4299"
         inkscape:connector-curvature="0" /></g><g
       id="bullet-char-template(8211)"
       transform="scale(4.8828125e-4,-4.8828125e-4)"><path
         d="m -4,459 1139,0 0,147 -1139,0 0,-147 z"
         id="path4302"
         inkscape:connector-curvature="0" /></g></defs><defs
     class="TextEmbeddedBitmaps"
     id="defs4304" /><g
     id="id3"
     transform="translate(3.7811269e-6,541.00035)"
     style="fill:url(#linearGradient4911);fill-opacity:1;stroke:#ffffff;stroke-width:400.00003052;stroke-miterlimit:4;stroke-dasharray:none;stroke-opacity:1;filter:url(#filter5986)"
     inkscape:export-xdpi="115.29"
     inkscape:export-ydpi="115.29"><path
       style="fill:url(#linearGradient4189);fill-opacity:1;stroke:#ffffff;stroke-width:400.00003052;stroke-linejoin:round;stroke-miterlimit:4;stroke-dasharray:none;stroke-opacity:1"
       inkscape:connector-curvature="0"
       id="path4327"
       d="m 10771,14222.999 c -865.0003,0 -1601.0003,-197 -2350.0003,-630 -749,-432 -1288,-971 -1720,-1720 -433,-749 -630,-1485 -630,-2349.9996 0,-865 197,-1601 630,-2350 432,-749 971,-1288 1720,-1720 749,-433 1485,-630 2350.0003,-630 865,0 1601,197 2350,630 749,432 1288,971 1720,1720 433,749 630,1485 630,2350 0,864.9996 -197,1600.9996 -630,2349.9996 -432,749 -971,1288 -1720,1720 -749,433 -1485,630 -2350,630 l 0,0 z" /><g
       id="g4316"
       style="fill:url(#linearGradient4193);fill-opacity:1;stroke:#ffffff;stroke-width:400.00003052;stroke-miterlimit:4;stroke-dasharray:none;stroke-opacity:1"
       transform="translate(270.99974,-270.0006)"><defs
         id="defs4318"><linearGradient
           gradientUnits="userSpaceOnUse"
           y2="15354"
           x2="13711"
           y1="4232"
           x1="7289"
           id="linearGradient4919"><stop
             id="stop4321"
             style="stop-color:#adad35;fill-opacity:1;fill:url(#linearGradient4911);stop-opacity:1"
             offset="0" /><stop
             id="stop4323"
             style="stop-color:#ffffbd;fill-opacity:1;fill:url(#linearGradient4911);stop-opacity:1"
             offset="1" /></linearGradient></defs><path
         inkscape:connector-curvature="0"
         id="path4325"
         d="m 10500,14493 -319,-9 -308,-29 -299,-47 -292,-68 -287,-87 -283,-109 -281,-129 -281,-152 -271,-167 -253,-179 -236,-191 -219,-204 -204,-219 -191,-236 -179,-253 -167,-271 -152,-281 -129,-281 -109,-283 -87,-287 -68,-292 -47,-299 -29,-308 -9,-319 9,-319 29,-308 47,-299 68,-292 87,-287 109,-283 129,-281 152,-281 167,-271 179,-253 191,-236 204,-219 219,-204 236,-191 253,-179 271,-167 281,-152 281,-129 283,-109 287,-87 292,-68 299,-47 308,-29 319,-9 319,9 308,29 299,47 292,68 287,87 283,109 281,129 281,152 271,167 253,179 236,191 219,204 204,219 191,236 179,253 167,271 152,281 129,281 109,283 87,287 68,292 47,299 29,308 9,319 -9,319 -29,308 -47,299 -68,292 -87,287 -109,283 -129,281 -152,281 -167,271 -179,253 -191,236 -204,219 -219,204 -236,191 -253,179 -271,167 -281,152 -281,129 -283,109 -287,87 -292,68 -299,47 -308,29 -319,9 0,0 z"
         style="fill:url(#linearGradient4191);fill-opacity:1;stroke:#ffffff;stroke-width:400.00003052;stroke-miterlimit:4;stroke-dasharray:none;stroke-opacity:1" /></g><path
       style="fill:#adad35;fill-opacity:1;fill-rule:evenodd;stroke:#adad35;stroke-width:28.22222328px;stroke-linecap:butt;stroke-linejoin:miter;stroke-opacity:1"
       d="m 12462.396,10903.296 78.048,-913.0483 1058.895,1969.8153 -2051.604,-901.79 z"
       id="path4181"
       inkscape:connector-curvature="0"
       sodipodi:nodetypes="ccccc" /><path
       sodipodi:nodetypes="ccccc"
       inkscape:connector-curvature="0"
       id="path4183"
       d="M 9890.9629,6854.5497 9846.7818,5939.2371 11158.452,7750.5772 9005.0684,7129.8956 Z"
       style="fill:#adad35;fill-opacity:1;fill-rule:evenodd;stroke:#adad35;stroke-width:28.22222328px;stroke-linecap:butt;stroke-linejoin:miter;stroke-opacity:1" /><path
       style="fill:#adad35;fill-opacity:1;fill-rule:evenodd;stroke:#adad35;stroke-width:28.22222328px;stroke-linecap:butt;stroke-linejoin:miter;stroke-opacity:1"
       d="m 10260.24,9423.4259 -330.5651,-854.6788 1815.9411,1305.2933 -2239.241,90.0441 z"
       id="path4185"
       inkscape:connector-curvature="0"
       sodipodi:nodetypes="ccccc" /><path
       sodipodi:nodetypes="ccccc"
       inkscape:connector-curvature="0"
       id="path4187"
       d="m 8773.523,11072.752 -305.6328,-863.909 1777.3128,1357.423 -2240.9113,25.049 z"
       style="fill:#adad35;fill-opacity:1;fill-rule:evenodd;stroke:#adad35;stroke-width:28.22222328px;stroke-linecap:butt;stroke-linejoin:miter;stroke-opacity:1" /></g></svg>