<?xml version="1.0" encoding="UTF-8" standalone="no"?>
<svg
   xmlns:ooo="http://xml.openoffice.org/svg/export"
   xmlns:dc="http://purl.org/dc/elements/1.1/"
   xmlns:cc="http://creativecommons.org/ns#"
   xmlns:rdf="http://www.w3.org/1999/02/22-rdf-syntax-ns#"
   xmlns:svg="http://www.w3.org/2000/svg"
   xmlns="http://www.w3.org/2000/svg"
   xmlns:xlink="http://www.w3.org/1999/xlink"
   xmlns:sodipodi="http://sodipodi.sourceforge.net/DTD/sodipodi-0.dtd"
   xmlns:inkscape="http://www.inkscape.org/namespaces/inkscape"
   version="1.2"
   width="98.59mm"
   height="98.59mm"
   viewBox="5571 4864 9859 9859"
   preserveAspectRatio="xMidYMid"
   fill-rule="evenodd"
   stroke-width="28.222"
   stroke-linejoin="round"
   xml:space="preserve"
   id="svg4264"
   inkscape:version="0.91 r13725"
   sodipodi:docname="Flock.svg"><metadata
     id="metadata4336"><rdf:RDF><cc:Work
         rdf:about=""><dc:format>image/svg+xml</dc:format><dc:type
           rdf:resource="http://purl.org/dc/dcmitype/StillImage" /><dc:title></dc:title></cc:Work></rdf:RDF></metadata><sodipodi:namedview
     pagecolor="#ffffff"
     bordercolor="#666666"
     borderopacity="1"
     objecttolerance="10"
     gridtolerance="10"
     guidetolerance="10"
     inkscape:pageopacity="0"
     inkscape:pageshadow="2"
     inkscape:window-width="1186"
     inkscape:window-height="689"
     id="namedview4334"
     showgrid="false"
     inkscape:zoom="1.3940788"
     inkscape:cx="174.66732"
     inkscape:cy="174.66732"
     inkscape:window-x="0"
     inkscape:window-y="0"
     inkscape:window-maximized="0"
     inkscape:current-layer="id3" /><defs
     class="ClipPathGroup"
     id="defs4266"><linearGradient
       style="fill-opacity:1.0;fill:url(#linearGradient4911)"
       id="gradient1"
       x1="7289"
       y1="4232"
       x2="13711"
       y2="15354"
       gradientUnits="userSpaceOnUse"><stop
         offset="0"
         style="stop-color:rgb(252, 175, 62);fill-opacity:1.0;fill:url(#linearGradient4911)"
         id="stop4915" /><stop
         offset="1"
         style="stop-color:rgb(206, 92, 0);fill-opacity:1.0;fill:url(#linearGradient4911)"
         id="stop4917" /></linearGradient><inkscape:path-effect
       effect="powerstroke"
       id="path-effect4253"
       is_visible="true"
       offset_points="0,14.111112"
       sort_points="true"
       interpolator_type="CubicBezierJohan"
       interpolator_beta="0.2"
       start_linecap_type="zerowidth"
       linejoin_type="round"
       miter_limit="4"
       end_linecap_type="zerowidth"
       cusp_linecap_type="round" /><clipPath
       id="presentation_clip_path"
       clipPathUnits="userSpaceOnUse"><rect
         x="5571"
         y="4864"
         width="9859"
         height="9859"
         id="rect4269" /></clipPath><filter
       style="color-interpolation-filters:sRGB;"
       inkscape:label="Drop Shadow"
       id="filter5986"><feFlood
         flood-opacity="0.498039"
         flood-color="rgb(0,0,0)"
         result="flood"
         id="feFlood5988" /><feComposite
         in="flood"
         in2="SourceGraphic"
         operator="in"
         result="composite1"
         id="feComposite5990" /><feGaussianBlur
         in="composite1"
         stdDeviation="100"
         result="blur"
         id="feGaussianBlur5992" /><feOffset
         dx="21"
         dy="21"
         result="offset"
         id="feOffset5994" /><feComposite
         in="SourceGraphic"
         in2="offset"
         operator="over"
         result="composite2"
         id="feComposite5996" /></filter><linearGradient
       inkscape:collect="always"
       xlink:href="#linearGradient4919"
       id="linearGradient4911"
       x1="10528.419"
       y1="14732.622"
       x2="10633.536"
       y2="4893.8667"
       gradientUnits="userSpaceOnUse" /></defs><defs
     class="TextShapeIndex"
     id="defs4271"><g
       ooo:slide="id1"
       ooo:id-list="id3 id4"
       id="g4273" /></defs><defs
     class="EmbeddedBulletChars"
     id="defs4275"><g
       id="bullet-char-template(57356)"
       transform="scale(0.00048828125,-0.00048828125)"><path
         d="M 580,1141 L 1163,571 580,0 -4,571 580,1141 Z"
         id="path4278" /></g><g
       id="bullet-char-template(57354)"
       transform="scale(0.00048828125,-0.00048828125)"><path
         d="M 8,1128 L 1137,1128 1137,0 8,0 8,1128 Z"
         id="path4281" /></g><g
       id="bullet-char-template(10146)"
       transform="scale(0.00048828125,-0.00048828125)"><path
         d="M 174,0 L 602,739 174,1481 1456,739 174,0 Z M 1358,739 L 309,1346 659,739 1358,739 Z"
         id="path4284" /></g><g
       id="bullet-char-template(10132)"
       transform="scale(0.00048828125,-0.00048828125)"><path
         d="M 2015,739 L 1276,0 717,0 1260,543 174,543 174,936 1260,936 717,1481 1274,1481 2015,739 Z"
         id="path4287" /></g><g
       id="bullet-char-template(10007)"
       transform="scale(0.00048828125,-0.00048828125)"><path
         d="M 0,-2 C -7,14 -16,27 -25,37 L 356,567 C 262,823 215,952 215,954 215,979 228,992 255,992 264,992 276,990 289,987 310,991 331,999 354,1012 L 381,999 492,748 772,1049 836,1024 860,1049 C 881,1039 901,1025 922,1006 886,937 835,863 770,784 769,783 710,716 594,584 L 774,223 C 774,196 753,168 711,139 L 727,119 C 717,90 699,76 672,76 641,76 570,178 457,381 L 164,-76 C 142,-110 111,-127 72,-127 30,-127 9,-110 8,-76 1,-67 -2,-52 -2,-32 -2,-23 -1,-13 0,-2 Z"
         id="path4290" /></g><g
       id="bullet-char-template(10004)"
       transform="scale(0.00048828125,-0.00048828125)"><path
         d="M 285,-33 C 182,-33 111,30 74,156 52,228 41,333 41,471 41,549 55,616 82,672 116,743 169,778 240,778 293,778 328,747 346,684 L 369,508 C 377,444 397,411 428,410 L 1163,1116 C 1174,1127 1196,1133 1229,1133 1271,1133 1292,1118 1292,1087 L 1292,965 C 1292,929 1282,901 1262,881 L 442,47 C 390,-6 338,-33 285,-33 Z"
         id="path4293" /></g><g
       id="bullet-char-template(9679)"
       transform="scale(0.00048828125,-0.00048828125)"><path
         d="M 813,0 C 632,0 489,54 383,161 276,268 223,411 223,592 223,773 276,916 383,1023 489,1130 632,1184 813,1184 992,1184 1136,1130 1245,1023 1353,916 1407,772 1407,592 1407,412 1353,268 1245,161 1136,54 992,0 813,0 Z"
         id="path4296" /></g><g
       id="bullet-char-template(8226)"
       transform="scale(0.00048828125,-0.00048828125)"><path
         d="M 346,457 C 273,457 209,483 155,535 101,586 74,649 74,723 74,796 101,859 155,911 209,963 273,989 346,989 419,989 480,963 531,910 582,859 608,796 608,723 608,648 583,586 532,535 482,483 420,457 346,457 Z"
         id="path4299" /></g><g
       id="bullet-char-template(8211)"
       transform="scale(0.00048828125,-0.00048828125)"><path
         d="M -4,459 L 1135,459 1135,606 -4,606 -4,459 Z"
         id="path4302" /></g></defs><defs
     class="TextEmbeddedBitmaps"
     id="defs4304" /><g
     id="id3"
     transform="translate(3.7811269e-6,0)"
     style="stroke:#ffffff;stroke-opacity:1;stroke-width:400.00002262;stroke-miterlimit:4;stroke-dasharray:none;filter:url(#filter5986);fill-opacity:1;fill:url(#linearGradient4911)"
     inkscape:export-xdpi="115.29"
     inkscape:export-ydpi="115.29"><path
       style="fill:url(#linearGradient4911);stroke:#ffffff;stroke-width:400.00002262;stroke-linejoin:round;stroke-opacity:1;stroke-miterlimit:4;stroke-dasharray:none;fill-opacity:1.0"
       inkscape:connector-curvature="0"
       id="path4327"
       d="m 10500,14493 c -865,0 -1601,-197 -2350,-630 -749,-432 -1288,-971 -1720,-1720 -433,-749 -630,-1485 -630,-2350 0,-865 197,-1601 630,-2350 432,-749 971,-1288 1720,-1720 749,-433 1485,-630 2350,-630 865,0 1601,197 2350,630 749,432 1288,971 1720,1720 433,749 630,1485 630,2350 0,865 -197,1601 -630,2350 -432,749 -971,1288 -1720,1720 -749,433 -1485,630 -2350,630 l 0,0 z" /><g
       id="g4316"
       style="stroke:#ffffff;stroke-opacity:1;stroke-width:400.00002262;stroke-miterlimit:4;stroke-dasharray:none;fill:url(#linearGradient4911);fill-opacity:1.0"><defs
         id="defs4318"
         style="fill-opacity:1.0;fill:url(#linearGradient4911)"><linearGradient
           gradientUnits="userSpaceOnUse"
           y2="15354"
           x2="13711"
           y1="4232"
           x1="7289"
           id="linearGradient4919"
           style="fill-opacity:1.0;fill:url(#linearGradient4911)"><stop
             id="stop4321"
             style="stop-color:#adad35;fill-opacity:1;fill:url(#linearGradient4911);stop-opacity:1"
             offset="0" /><stop
             id="stop4323"
             style="stop-color:#ffffbd;fill-opacity:1;fill:url(#linearGradient4911);stop-opacity:1"
             offset="1" /></linearGradient></defs><path
         inkscape:connector-curvature="0"
         id="path4325"
         d="m 10500,14493 -319,-9 -308,-29 -299,-47 -292,-68 -287,-87 -283,-109 -281,-129 -281,-152 -271,-167 -253,-179 -236,-191 -219,-204 -204,-219 -191,-236 -179,-253 -167,-271 -152,-281 -129,-281 -109,-283 -87,-287 -68,-292 -47,-299 -29,-308 -9,-319 9,-319 29,-308 47,-299 68,-292 87,-287 109,-283 129,-281 152,-281 167,-271 179,-253 191,-236 204,-219 219,-204 236,-191 253,-179 271,-167 281,-152 281,-129 283,-109 287,-87 292,-68 299,-47 308,-29 319,-9 319,9 308,29 299,47 292,68 287,87 283,109 281,129 281,152 271,167 253,179 236,191 219,204 204,219 191,236 179,253 167,271 152,281 129,281 109,283 87,287 68,292 47,299 29,308 9,319 -9,319 -29,308 -47,299 -68,292 -87,287 -109,283 -129,281 -152,281 -167,271 -179,253 -191,236 -204,219 -219,204 -236,191 -253,179 -271,167 -281,152 -281,129 -283,109 -287,87 -292,68 -299,47 -308,29 -319,9 0,0 z"
         style="fill:url(#linearGradient4911);stroke:#ffffff;stroke-opacity:1;stroke-width:400.00002262;stroke-miterlimit:4;stroke-dasharray:none;fill-opacity:1.0" /></g><path
       sodipodi:type="star"
       style="fill:#adad35;fill-opacity:1;stroke:#008b8b;stroke-width:0;stroke-miterlimit:4;stroke-dasharray:none;stroke-opacity:1"
       id="path4255"
       sodipodi:sides="3"
       sodipodi:cx="11603.817"
       sodipodi:cy="7171.8564"
       sodipodi:r1="1478.3923"
       sodipodi:r2="739.19623"
       sodipodi:arg1="1.5981867"
       sodipodi:arg2="2.6453843"
       inkscape:flatsided="false"
       inkscape:rounded="0"
       inkscape:randomized="0"
       d="m 11563.329,8649.6942 -609.556,-1125.9104 -609.556,-1125.9105 1279.845,35.0642 1279.845,35.0642 -670.289,1090.8464 z"
       inkscape:transform-center-x="6.8832956"
       inkscape:transform-center-y="-40.091151"
       transform="matrix(0.41617212,-0.47067845,0.74915236,0.66239772,63.094583,7660.214)" /><path
       transform="matrix(0.46666778,-0.4206645,0.66954798,0.74276881,2011.7657,10734.521)"
       inkscape:transform-center-y="22.510577"
       inkscape:transform-center-x="67.722608"
       d="m 11563.329,8649.6942 -609.556,-1125.9104 -609.556,-1125.9105 1279.845,35.0642 1279.845,35.0642 -670.289,1090.8464 z"
       inkscape:randomized="0"
       inkscape:rounded="0"
       inkscape:flatsided="false"
       sodipodi:arg2="2.6453843"
       sodipodi:arg1="1.5981867"
       sodipodi:r2="739.19623"
       sodipodi:r1="1478.3923"
       sodipodi:cy="7171.8564"
       sodipodi:cx="11603.817"
       sodipodi:sides="3"
       id="path4941"
       style="fill:#adad35;fill-opacity:1;stroke:#008b8b;stroke-width:0;stroke-miterlimit:4;stroke-dasharray:none;stroke-opacity:1"
       sodipodi:type="star" /><path
       sodipodi:type="star"
       style="fill:#adad35;fill-opacity:1;stroke:#008b8b;stroke-width:0;stroke-miterlimit:4;stroke-dasharray:none;stroke-opacity:1"
       id="path4943"
       sodipodi:sides="3"
       sodipodi:cx="11603.817"
       sodipodi:cy="7171.8564"
       sodipodi:r1="1478.3923"
       sodipodi:r2="739.19623"
       sodipodi:arg1="1.5981867"
       sodipodi:arg2="2.6453843"
       inkscape:flatsided="false"
       inkscape:rounded="0"
       inkscape:randomized="0"
       d="m 11563.329,8649.6942 -609.556,-1125.9104 -609.556,-1125.9105 1279.845,35.0642 1279.845,35.0642 -670.289,1090.8464 z"
       inkscape:transform-center-x="-222.7912"
       inkscape:transform-center-y="-220.11999"
       transform="matrix(0.17678375,-0.60289713,0.95959738,0.28137674,-146.20578,16137.909)" /><path
       transform="matrix(0.04057305,-0.62696991,0.99791267,0.06457783,2475.4496,16048.881)"
       inkscape:transform-center-y="-60.410723"
       inkscape:transform-center-x="-324.81851"
       d="m 11563.329,8649.6942 -609.556,-1125.9104 -609.556,-1125.9105 1279.845,35.0642 1279.845,35.0642 -670.289,1090.8464 z"
       inkscape:randomized="0"
       inkscape:rounded="0"
       inkscape:flatsided="false"
       sodipodi:arg2="2.6453843"
       sodipodi:arg1="1.5981867"
       sodipodi:r2="739.19623"
       sodipodi:r1="1478.3923"
       sodipodi:cy="7171.8564"
       sodipodi:cx="11603.817"
       sodipodi:sides="3"
       id="path4945"
       style="fill:#adad35;fill-opacity:1;stroke:#008b8b;stroke-width:0;stroke-miterlimit:4;stroke-dasharray:none;stroke-opacity:1"
       sodipodi:type="star" /></g></svg>